<svg width="139" height="32" viewBox="0 0 139 32" fill="none" xmlns="http://www.w3.org/2000/svg">
<path d="M44.5789 1L21.7279 24.9964L19.1146 24.9184L41.8909 1.00038L44.5789 1Z" fill="#F58859"/>
<path d="M38.1575 1.00091L15.3812 24.9189L12.7679 24.9977L35.6189 1.00128L38.1575 1.00091Z" fill="#F58859"/>
<path d="M31.8856 1.00184L9.03466 24.9982L6.34667 24.9986L29.1977 1.00222L31.8856 1.00184Z" fill="#F58859"/>
<path d="M25.4643 1.00276L2.6133 24.9991L0 24.9211L22.7763 1.00315L25.4643 1.00276Z" fill="#F58859"/>
<mask id="path-2-outside-1" maskUnits="userSpaceOnUse" x="24" y="6" width="115" height="20" fill="black">
<rect fill="white" x="24" y="6" width="115" height="20"/>
<path d="M31.7534 20.2799C37.9293 20.2473 42.4069 20.1576 45.186 20.0109C45.0723 20.6793 44.9991 21.3723 44.9666 22.0897C44.9504 22.7908 44.9423 23.6793 44.9423 24.7554H26C26.13 21.5924 26.195 18.6332 26.195 15.8777C26.195 13.1223 26.13 10.163 26 7H44.9423V11.4266H31.7534V13.7745C32.5335 13.7908 33.6874 13.7989 35.2152 13.7989C37.7993 13.7989 40.4728 13.75 43.2358 13.6522V17.8587C40.4728 17.7609 37.7993 17.712 35.2152 17.712C33.6874 17.712 32.5335 17.7201 31.7534 17.7364V20.2799Z"/>
<path d="M62.9383 11.4022C61.1831 16.1467 59.6228 20.5978 58.2576 24.7554H50.6271C49.1643 20.3043 47.596 15.8533 45.922 11.4022H51.651L54.4789 21.4783L57.2825 11.4022H62.9383Z"/>
<path d="M75.3578 18.6413H67.4103C67.5403 19.3587 67.8572 19.9457 68.3611 20.4022C68.8811 20.8424 69.6125 21.0625 70.5551 21.0625C71.2378 21.0625 71.8797 20.9321 72.4811 20.6712C73.0824 20.394 73.5619 20.0109 73.9194 19.5217C75.0083 20.0598 76.4548 20.6386 78.2588 21.2582C77.755 22.3995 76.8367 23.3125 75.504 23.9973C74.1876 24.6658 72.4648 25 70.3357 25C67.5728 25 65.525 24.3641 64.1923 23.0924C62.8759 21.8043 62.2176 20.1168 62.2176 18.0299C62.2176 15.9918 62.8759 14.337 64.1923 13.0652C65.5088 11.7935 67.5566 11.1576 70.3357 11.1576C71.9935 11.1576 73.4318 11.4348 74.6508 11.9891C75.8697 12.5435 76.8042 13.3179 77.4543 14.3125C78.1044 15.2908 78.4295 16.4158 78.4295 17.6875C78.4295 18.1114 78.4132 18.4293 78.3807 18.6413H75.3578ZM70.677 14.8505C69.8644 14.8505 69.1981 15.0054 68.678 15.3152C68.1579 15.625 67.7922 16.0489 67.5809 16.587H73.3343C73.1393 16.0652 72.8224 15.6495 72.3836 15.3397C71.9447 15.0136 71.3759 14.8505 70.677 14.8505Z"/>
<path d="M85.5385 15.0217C86.2211 12.5598 87.9195 11.3288 90.6337 11.3288C91.105 11.3288 91.5601 11.3614 91.9989 11.4266L91.2188 16.9049C90.0486 16.4647 89.0897 16.2446 88.3421 16.2446C87.4157 16.2446 86.7331 16.5217 86.2943 17.0761C85.8555 17.6304 85.636 18.3723 85.636 19.3016V19.2772L85.6117 20.8913C85.6117 22.0489 85.6442 23.337 85.7092 24.7554H79.8827C80.0127 22.4076 80.0777 20.1902 80.0777 18.1033C80.0777 16.0163 80.0127 13.7826 79.8827 11.4022C80.9553 11.4511 81.7761 11.4755 82.3449 11.4755C82.9463 11.4755 83.767 11.4511 84.8072 11.4022L85.5385 15.0217Z"/>
<path d="M105.867 18.6413H97.9199C98.0499 19.3587 98.3668 19.9457 98.8706 20.4022C99.3907 20.8424 100.122 21.0625 101.065 21.0625C101.747 21.0625 102.389 20.9321 102.991 20.6712C103.592 20.394 104.071 20.0109 104.429 19.5217C105.518 20.0598 106.964 20.6386 108.768 21.2582C108.265 22.3995 107.346 23.3125 106.014 23.9973C104.697 24.6658 102.974 25 100.845 25C98.0824 25 96.0346 24.3641 94.7019 23.0924C93.3854 21.8043 92.7272 20.1168 92.7272 18.0299C92.7272 15.9918 93.3854 14.337 94.7019 13.0652C96.0183 11.7935 98.0661 11.1576 100.845 11.1576C102.503 11.1576 103.941 11.4348 105.16 11.9891C106.379 12.5435 107.314 13.3179 107.964 14.3125C108.614 15.2908 108.939 16.4158 108.939 17.6875C108.939 18.1114 108.923 18.4293 108.89 18.6413H105.867ZM101.187 14.8505C100.374 14.8505 99.7076 15.0054 99.1876 15.3152C98.6675 15.625 98.3018 16.0489 98.0905 16.587H103.844C103.649 16.0652 103.332 15.6495 102.893 15.3397C102.454 15.0136 101.885 14.8505 101.187 14.8505Z"/>
<path d="M118.267 25C116.901 25 115.512 24.8125 114.098 24.4375C112.7 24.0462 111.384 23.4592 110.148 22.6766L112.708 19.1793C113.456 19.7174 114.358 20.1413 115.414 20.4511C116.471 20.7446 117.381 20.8913 118.145 20.8913C118.876 20.8913 119.437 20.7935 119.827 20.5978C120.233 20.3859 120.436 20.1168 120.436 19.7908C120.436 19.5299 120.339 19.3261 120.144 19.1793C119.949 19.0326 119.681 18.9592 119.339 18.9592C119.128 18.9592 118.884 18.9674 118.608 18.9837C118.348 19 118.137 19.0163 117.974 19.0326C117.129 19.1304 116.259 19.1793 115.366 19.1793C113.919 19.1793 112.741 18.9103 111.831 18.3723C110.937 17.8179 110.49 16.9212 110.49 15.6821C110.49 14.2473 111.164 13.1386 112.513 12.356C113.862 11.5571 115.845 11.1576 118.462 11.1576C119.746 11.1576 121.038 11.3451 122.338 11.7201C123.654 12.0788 124.816 12.625 125.824 13.3587L123.02 16.1957C122.094 15.7065 121.225 15.3641 120.412 15.1685C119.616 14.9565 118.811 14.8505 117.998 14.8505C117.43 14.8505 116.942 14.9647 116.536 15.1929C116.129 15.4212 115.926 15.6821 115.926 15.9755C115.926 16.2038 116.007 16.3832 116.17 16.5136C116.349 16.644 116.576 16.7092 116.853 16.7092C117.129 16.7092 117.511 16.6848 117.998 16.6359C119.185 16.5543 120.071 16.5136 120.656 16.5136C122.346 16.5136 123.654 16.7989 124.581 17.3696C125.507 17.9402 125.97 18.8125 125.97 19.9864C125.97 21.7473 125.288 23.0272 123.922 23.8261C122.557 24.6087 120.672 25 118.267 25Z"/>
<path d="M138 15.7799C136.505 15.6821 135.14 15.6087 133.904 15.5598L133.88 18.1522C133.88 19.0326 134.067 19.7255 134.441 20.231C134.831 20.7201 135.513 20.9647 136.489 20.9647C136.862 20.9647 137.22 20.9321 137.561 20.8668C137.496 21.4701 137.464 22.0815 137.464 22.7011C137.464 22.9946 137.48 23.663 137.512 24.7065C136.797 24.837 136.196 24.9185 135.708 24.9511C135.221 24.9837 134.587 25 133.807 25C131.905 25 130.556 24.5435 129.76 23.6304C128.98 22.7011 128.59 21.413 128.59 19.7663L128.614 15.6332C127.85 15.6658 127.054 15.7147 126.225 15.7799V11.4511C127.07 11.4511 127.785 11.1821 128.37 10.644C128.955 10.106 129.305 9.46196 129.419 8.71196H136.05C135.221 9.85326 134.303 10.7663 133.295 11.4511H138V15.7799Z"/>
</mask>
<path d="M31.7534 20.2799C37.9293 20.2473 42.4069 20.1576 45.186 20.0109C45.0723 20.6793 44.9991 21.3723 44.9666 22.0897C44.9504 22.7908 44.9423 23.6793 44.9423 24.7554H26C26.13 21.5924 26.195 18.6332 26.195 15.8777C26.195 13.1223 26.13 10.163 26 7H44.9423V11.4266H31.7534V13.7745C32.5335 13.7908 33.6874 13.7989 35.2152 13.7989C37.7993 13.7989 40.4728 13.75 43.2358 13.6522V17.8587C40.4728 17.7609 37.7993 17.712 35.2152 17.712C33.6874 17.712 32.5335 17.7201 31.7534 17.7364V20.2799Z" fill="white"/>
<path d="M62.9383 11.4022C61.1831 16.1467 59.6228 20.5978 58.2576 24.7554H50.6271C49.1643 20.3043 47.596 15.8533 45.922 11.4022H51.651L54.4789 21.4783L57.2825 11.4022H62.9383Z" fill="white"/>
<path d="M75.3578 18.6413H67.4103C67.5403 19.3587 67.8572 19.9457 68.3611 20.4022C68.8811 20.8424 69.6125 21.0625 70.5551 21.0625C71.2378 21.0625 71.8797 20.9321 72.4811 20.6712C73.0824 20.394 73.5619 20.0109 73.9194 19.5217C75.0083 20.0598 76.4548 20.6386 78.2588 21.2582C77.755 22.3995 76.8367 23.3125 75.504 23.9973C74.1876 24.6658 72.4648 25 70.3357 25C67.5728 25 65.525 24.3641 64.1923 23.0924C62.8759 21.8043 62.2176 20.1168 62.2176 18.0299C62.2176 15.9918 62.8759 14.337 64.1923 13.0652C65.5088 11.7935 67.5566 11.1576 70.3357 11.1576C71.9935 11.1576 73.4318 11.4348 74.6508 11.9891C75.8697 12.5435 76.8042 13.3179 77.4543 14.3125C78.1044 15.2908 78.4295 16.4158 78.4295 17.6875C78.4295 18.1114 78.4132 18.4293 78.3807 18.6413H75.3578ZM70.677 14.8505C69.8644 14.8505 69.1981 15.0054 68.678 15.3152C68.1579 15.625 67.7922 16.0489 67.5809 16.587H73.3343C73.1393 16.0652 72.8224 15.6495 72.3836 15.3397C71.9447 15.0136 71.3759 14.8505 70.677 14.8505Z" fill="white"/>
<path d="M85.5385 15.0217C86.2211 12.5598 87.9195 11.3288 90.6337 11.3288C91.105 11.3288 91.5601 11.3614 91.9989 11.4266L91.2188 16.9049C90.0486 16.4647 89.0897 16.2446 88.3421 16.2446C87.4157 16.2446 86.7331 16.5217 86.2943 17.0761C85.8555 17.6304 85.636 18.3723 85.636 19.3016V19.2772L85.6117 20.8913C85.6117 22.0489 85.6442 23.337 85.7092 24.7554H79.8827C80.0127 22.4076 80.0777 20.1902 80.0777 18.1033C80.0777 16.0163 80.0127 13.7826 79.8827 11.4022C80.9553 11.4511 81.7761 11.4755 82.3449 11.4755C82.9463 11.4755 83.767 11.4511 84.8072 11.4022L85.5385 15.0217Z" fill="white"/>
<path d="M105.867 18.6413H97.9199C98.0499 19.3587 98.3668 19.9457 98.8706 20.4022C99.3907 20.8424 100.122 21.0625 101.065 21.0625C101.747 21.0625 102.389 20.9321 102.991 20.6712C103.592 20.394 104.071 20.0109 104.429 19.5217C105.518 20.0598 106.964 20.6386 108.768 21.2582C108.265 22.3995 107.346 23.3125 106.014 23.9973C104.697 24.6658 102.974 25 100.845 25C98.0824 25 96.0346 24.3641 94.7019 23.0924C93.3854 21.8043 92.7272 20.1168 92.7272 18.0299C92.7272 15.9918 93.3854 14.337 94.7019 13.0652C96.0183 11.7935 98.0661 11.1576 100.845 11.1576C102.503 11.1576 103.941 11.4348 105.16 11.9891C106.379 12.5435 107.314 13.3179 107.964 14.3125C108.614 15.2908 108.939 16.4158 108.939 17.6875C108.939 18.1114 108.923 18.4293 108.89 18.6413H105.867ZM101.187 14.8505C100.374 14.8505 99.7076 15.0054 99.1876 15.3152C98.6675 15.625 98.3018 16.0489 98.0905 16.587H103.844C103.649 16.0652 103.332 15.6495 102.893 15.3397C102.454 15.0136 101.885 14.8505 101.187 14.8505Z" fill="white"/>
<path d="M118.267 25C116.901 25 115.512 24.8125 114.098 24.4375C112.7 24.0462 111.384 23.4592 110.148 22.6766L112.708 19.1793C113.456 19.7174 114.358 20.1413 115.414 20.4511C116.471 20.7446 117.381 20.8913 118.145 20.8913C118.876 20.8913 119.437 20.7935 119.827 20.5978C120.233 20.3859 120.436 20.1168 120.436 19.7908C120.436 19.5299 120.339 19.3261 120.144 19.1793C119.949 19.0326 119.681 18.9592 119.339 18.9592C119.128 18.9592 118.884 18.9674 118.608 18.9837C118.348 19 118.137 19.0163 117.974 19.0326C117.129 19.1304 116.259 19.1793 115.366 19.1793C113.919 19.1793 112.741 18.9103 111.831 18.3723C110.937 17.8179 110.49 16.9212 110.49 15.6821C110.49 14.2473 111.164 13.1386 112.513 12.356C113.862 11.5571 115.845 11.1576 118.462 11.1576C119.746 11.1576 121.038 11.3451 122.338 11.7201C123.654 12.0788 124.816 12.625 125.824 13.3587L123.02 16.1957C122.094 15.7065 121.225 15.3641 120.412 15.1685C119.616 14.9565 118.811 14.8505 117.998 14.8505C117.43 14.8505 116.942 14.9647 116.536 15.1929C116.129 15.4212 115.926 15.6821 115.926 15.9755C115.926 16.2038 116.007 16.3832 116.17 16.5136C116.349 16.644 116.576 16.7092 116.853 16.7092C117.129 16.7092 117.511 16.6848 117.998 16.6359C119.185 16.5543 120.071 16.5136 120.656 16.5136C122.346 16.5136 123.654 16.7989 124.581 17.3696C125.507 17.9402 125.97 18.8125 125.97 19.9864C125.97 21.7473 125.288 23.0272 123.922 23.8261C122.557 24.6087 120.672 25 118.267 25Z" fill="white"/>
<path d="M138 15.7799C136.505 15.6821 135.14 15.6087 133.904 15.5598L133.88 18.1522C133.88 19.0326 134.067 19.7255 134.441 20.231C134.831 20.7201 135.513 20.9647 136.489 20.9647C136.862 20.9647 137.22 20.9321 137.561 20.8668C137.496 21.4701 137.464 22.0815 137.464 22.7011C137.464 22.9946 137.48 23.663 137.512 24.7065C136.797 24.837 136.196 24.9185 135.708 24.9511C135.221 24.9837 134.587 25 133.807 25C131.905 25 130.556 24.5435 129.76 23.6304C128.98 22.7011 128.59 21.413 128.59 19.7663L128.614 15.6332C127.85 15.6658 127.054 15.7147 126.225 15.7799V11.4511C127.07 11.4511 127.785 11.1821 128.37 10.644C128.955 10.106 129.305 9.46196 129.419 8.71196H136.05C135.221 9.85326 134.303 10.7663 133.295 11.4511H138V15.7799Z" fill="white"/>
<path d="M31.7534 20.2799C37.9293 20.2473 42.4069 20.1576 45.186 20.0109C45.0723 20.6793 44.9991 21.3723 44.9666 22.0897C44.9504 22.7908 44.9423 23.6793 44.9423 24.7554H26C26.13 21.5924 26.195 18.6332 26.195 15.8777C26.195 13.1223 26.13 10.163 26 7H44.9423V11.4266H31.7534V13.7745C32.5335 13.7908 33.6874 13.7989 35.2152 13.7989C37.7993 13.7989 40.4728 13.75 43.2358 13.6522V17.8587C40.4728 17.7609 37.7993 17.712 35.2152 17.712C33.6874 17.712 32.5335 17.7201 31.7534 17.7364V20.2799Z" stroke="black" stroke-width="2" mask="url(#path-2-outside-1)"/>
<path d="M62.9383 11.4022C61.1831 16.1467 59.6228 20.5978 58.2576 24.7554H50.6271C49.1643 20.3043 47.596 15.8533 45.922 11.4022H51.651L54.4789 21.4783L57.2825 11.4022H62.9383Z" stroke="black" stroke-width="2" mask="url(#path-2-outside-1)"/>
<path d="M75.3578 18.6413H67.4103C67.5403 19.3587 67.8572 19.9457 68.3611 20.4022C68.8811 20.8424 69.6125 21.0625 70.5551 21.0625C71.2378 21.0625 71.8797 20.9321 72.4811 20.6712C73.0824 20.394 73.5619 20.0109 73.9194 19.5217C75.0083 20.0598 76.4548 20.6386 78.2588 21.2582C77.755 22.3995 76.8367 23.3125 75.504 23.9973C74.1876 24.6658 72.4648 25 70.3357 25C67.5728 25 65.525 24.3641 64.1923 23.0924C62.8759 21.8043 62.2176 20.1168 62.2176 18.0299C62.2176 15.9918 62.8759 14.337 64.1923 13.0652C65.5088 11.7935 67.5566 11.1576 70.3357 11.1576C71.9935 11.1576 73.4318 11.4348 74.6508 11.9891C75.8697 12.5435 76.8042 13.3179 77.4543 14.3125C78.1044 15.2908 78.4295 16.4158 78.4295 17.6875C78.4295 18.1114 78.4132 18.4293 78.3807 18.6413H75.3578ZM70.677 14.8505C69.8644 14.8505 69.1981 15.0054 68.678 15.3152C68.1579 15.625 67.7922 16.0489 67.5809 16.587H73.3343C73.1393 16.0652 72.8224 15.6495 72.3836 15.3397C71.9447 15.0136 71.3759 14.8505 70.677 14.8505Z" stroke="black" stroke-width="2" mask="url(#path-2-outside-1)"/>
<path d="M85.5385 15.0217C86.2211 12.5598 87.9195 11.3288 90.6337 11.3288C91.105 11.3288 91.5601 11.3614 91.9989 11.4266L91.2188 16.9049C90.0486 16.4647 89.0897 16.2446 88.3421 16.2446C87.4157 16.2446 86.7331 16.5217 86.2943 17.0761C85.8555 17.6304 85.636 18.3723 85.636 19.3016V19.2772L85.6117 20.8913C85.6117 22.0489 85.6442 23.337 85.7092 24.7554H79.8827C80.0127 22.4076 80.0777 20.1902 80.0777 18.1033C80.0777 16.0163 80.0127 13.7826 79.8827 11.4022C80.9553 11.4511 81.7761 11.4755 82.3449 11.4755C82.9463 11.4755 83.767 11.4511 84.8072 11.4022L85.5385 15.0217Z" stroke="black" stroke-width="2" mask="url(#path-2-outside-1)"/>
<path d="M105.867 18.6413H97.9199C98.0499 19.3587 98.3668 19.9457 98.8706 20.4022C99.3907 20.8424 100.122 21.0625 101.065 21.0625C101.747 21.0625 102.389 20.9321 102.991 20.6712C103.592 20.394 104.071 20.0109 104.429 19.5217C105.518 20.0598 106.964 20.6386 108.768 21.2582C108.265 22.3995 107.346 23.3125 106.014 23.9973C104.697 24.6658 102.974 25 100.845 25C98.0824 25 96.0346 24.3641 94.7019 23.0924C93.3854 21.8043 92.7272 20.1168 92.7272 18.0299C92.7272 15.9918 93.3854 14.337 94.7019 13.0652C96.0183 11.7935 98.0661 11.1576 100.845 11.1576C102.503 11.1576 103.941 11.4348 105.16 11.9891C106.379 12.5435 107.314 13.3179 107.964 14.3125C108.614 15.2908 108.939 16.4158 108.939 17.6875C108.939 18.1114 108.923 18.4293 108.89 18.6413H105.867ZM101.187 14.8505C100.374 14.8505 99.7076 15.0054 99.1876 15.3152C98.6675 15.625 98.3018 16.0489 98.0905 16.587H103.844C103.649 16.0652 103.332 15.6495 102.893 15.3397C102.454 15.0136 101.885 14.8505 101.187 14.8505Z" stroke="black" stroke-width="2" mask="url(#path-2-outside-1)"/>
<path d="M118.267 25C116.901 25 115.512 24.8125 114.098 24.4375C112.7 24.0462 111.384 23.4592 110.148 22.6766L112.708 19.1793C113.456 19.7174 114.358 20.1413 115.414 20.4511C116.471 20.7446 117.381 20.8913 118.145 20.8913C118.876 20.8913 119.437 20.7935 119.827 20.5978C120.233 20.3859 120.436 20.1168 120.436 19.7908C120.436 19.5299 120.339 19.3261 120.144 19.1793C119.949 19.0326 119.681 18.9592 119.339 18.9592C119.128 18.9592 118.884 18.9674 118.608 18.9837C118.348 19 118.137 19.0163 117.974 19.0326C117.129 19.1304 116.259 19.1793 115.366 19.1793C113.919 19.1793 112.741 18.9103 111.831 18.3723C110.937 17.8179 110.49 16.9212 110.49 15.6821C110.49 14.2473 111.164 13.1386 112.513 12.356C113.862 11.5571 115.845 11.1576 118.462 11.1576C119.746 11.1576 121.038 11.3451 122.338 11.7201C123.654 12.0788 124.816 12.625 125.824 13.3587L123.02 16.1957C122.094 15.7065 121.225 15.3641 120.412 15.1685C119.616 14.9565 118.811 14.8505 117.998 14.8505C117.43 14.8505 116.942 14.9647 116.536 15.1929C116.129 15.4212 115.926 15.6821 115.926 15.9755C115.926 16.2038 116.007 16.3832 116.17 16.5136C116.349 16.644 116.576 16.7092 116.853 16.7092C117.129 16.7092 117.511 16.6848 117.998 16.6359C119.185 16.5543 120.071 16.5136 120.656 16.5136C122.346 16.5136 123.654 16.7989 124.581 17.3696C125.507 17.9402 125.97 18.8125 125.97 19.9864C125.97 21.7473 125.288 23.0272 123.922 23.8261C122.557 24.6087 120.672 25 118.267 25Z" stroke="black" stroke-width="2" mask="url(#path-2-outside-1)"/>
<path d="M138 15.7799C136.505 15.6821 135.14 15.6087 133.904 15.5598L133.88 18.1522C133.88 19.0326 134.067 19.7255 134.441 20.231C134.831 20.7201 135.513 20.9647 136.489 20.9647C136.862 20.9647 137.22 20.9321 137.561 20.8668C137.496 21.4701 137.464 22.0815 137.464 22.7011C137.464 22.9946 137.48 23.663 137.512 24.7065C136.797 24.837 136.196 24.9185 135.708 24.9511C135.221 24.9837 134.587 25 133.807 25C131.905 25 130.556 24.5435 129.76 23.6304C128.98 22.7011 128.59 21.413 128.59 19.7663L128.614 15.6332C127.85 15.6658 127.054 15.7147 126.225 15.7799V11.4511C127.07 11.4511 127.785 11.1821 128.37 10.644C128.955 10.106 129.305 9.46196 129.419 8.71196H136.05C135.221 9.85326 134.303 10.7663 133.295 11.4511H138V15.7799Z" stroke="black" stroke-width="2" mask="url(#path-2-outside-1)"/>
</svg>
